PathFileType	4	(X/Y/Z)	\\Move.snu.ac.kr\motion\Animal\091204_091205_Bird\091205_bird\Project 2\Capture day 2\Session 1\pigeon_024.trc
DataRate	CameraRate	NumFrames	NumMarkers	Units	OrigDataRate	OrigDataStartFrame	OrigNumFrames
240.0	240.0	25	14	mm	240.0	200	1929
Frame#	Time	14MarkersBird:Head			14MarkersBird:C_back			14MarkersBird:Spine			14MarkersBird:L-shoulder			14MarkersBird:L-elbow			14MarkersBird:L-wrist			14MarkersBird:L-hand			14MarkersBird:R-shoulder			14MarkersBird:R-elbow			14MarkersBird:R-Wrist			14MarkersBird:R-hand			14MarkersBird:C_Tail			14MarkersBird:L-Tale			14MarkersBird:R-Tale			
		X1	Y1	Z1	X2	Y2	Z2	X3	Y3	Z3	X4	Y4	Z4	X5	Y5	Z5	X6	Y6	Z6	X7	Y7	Z7	X8	Y8	Z8	X9	Y9	Z9	X10	Y10	Z10	X11	Y11	Z11	X12	Y12	Z12	X13	Y13	Z13	X14	Y14	Z14	

1086	4.521	693.48022	1198.73669	-1201.59656	676.08087	1205.82068	-1260.34424	648.96289	1201.96033	-1308.44800	703.09399	1190.57959	-1241.79468	712.35822	1173.83154	-1269.98584	727.53772	1156.82336	-1232.09290	725.77509	1134.62170	-1216.76758	663.15454	1199.15686	-1220.30042	636.01379	1200.40393	-1225.07483	651.30786	1179.13257	-1192.30725	645.60175	1146.91418	-1170.02612	587.78894	1134.12244	-1394.04114	685.55054	1126.95447	-1379.37634	534.68915	1190.23389	-1310.77661	
1087	4.525	699.05359	1193.52893	-1190.02844	681.36041	1201.09448	-1248.23535	654.42743	1197.71191	-1296.62720	708.39929	1186.21558	-1230.21191	716.68665	1172.33801	-1261.37439	734.59967	1159.13306	-1223.43909	731.94702	1136.98206	-1207.35266	668.65924	1194.48450	-1208.72534	640.63501	1198.91870	-1216.33130	657.03241	1181.98254	-1182.18445	652.61572	1148.27869	-1161.10547	593.06183	1131.09216	-1382.97314	690.36438	1123.05005	-1368.62573	540.20691	1183.29944	-1298.93713	
1088	4.529	704.67352	1188.24060	-1178.28015	686.60669	1195.83643	-1235.82385	660.05170	1193.33459	-1284.63562	713.58527	1181.52747	-1218.52783	720.89612	1172.15625	-1252.55530	742.87091	1162.01929	-1216.07458	741.10516	1138.80823	-1201.10840	674.44531	1189.72668	-1197.15906	646.08594	1198.41016	-1208.23193	661.18848	1186.05554	-1171.95007	655.55841	1151.88867	-1152.10242	599.10681	1127.47632	-1371.94531	695.84918	1119.20227	-1357.53467	545.99030	1176.42664	-1287.53503	
1089	4.533	710.30103	1182.88196	-1166.43005	691.83307	1190.17297	-1223.20325	665.77850	1188.79797	-1272.50708	718.66333	1176.54932	-1206.71191	724.57623	1172.92688	-1242.87915	751.39050	1165.40369	-1209.31750	751.50684	1140.33057	-1197.83643	680.59467	1184.98218	-1185.75342	653.03479	1198.22827	-1200.71899	664.58875	1190.65320	-1162.08350	655.36182	1157.08044	-1143.79370	605.83417	1123.14331	-1360.88452	702.07452	1115.64966	-1346.29504	551.96216	1170.27966	-1276.71802	
1090	4.537	715.90179	1177.48853	-1154.57751	697.09900	1184.29590	-1210.49561	671.54053	1184.02356	-1260.29822	723.69739	1171.35913	-1194.70483	727.36224	1174.02515	-1231.88513	759.07794	1169.25110	-1202.47949	761.54419	1142.57336	-1197.05518	687.05859	1180.26965	-1174.57556	661.85657	1197.62878	-1193.55676	668.28064	1195.22144	-1153.05896	653.41931	1163.79980	-1136.95764	613.08923	1118.21875	-1349.85278	709.15283	1112.57275	-1334.97876	558.00421	1165.30249	-1266.37195	
1091	4.542	721.46405	1172.09985	-1142.80310	702.45984	1178.39099	-1197.73010	677.29144	1178.94214	-1248.09973	728.76843	1166.01379	-1182.51587	729.06006	1174.55847	-1219.38672	765.04675	1173.32178	-1194.90186	769.91840	1146.68665	-1197.67273	693.64398	1175.43774	-1163.53564	672.39178	1195.95337	-1186.37756	673.25635	1199.14868	-1145.12756	651.43896	1172.30334	-1132.15210	620.70410	1113.00122	-1339.00659	717.14752	1109.96997	-1323.49854	564.01160	1161.48010	-1256.12146	
1092	4.546	726.98224	1166.71204	-1131.13550	707.91681	1172.45862	-1184.99487	683.01782	1173.53845	-1236.00891	733.95013	1160.55823	-1170.27527	729.70483	1173.46338	-1205.41455	769.01416	1177.13440	-1186.12048	775.84900	1153.34558	-1197.97363	700.14441	1170.30103	-1152.50989	683.94891	1192.74316	-1178.75317	680.06500	1201.86572	-1138.13940	651.31525	1182.66406	-1129.55627	628.53693	1107.81812	-1328.50708	726.00427	1107.70691	-1311.69385	569.92474	1158.42468	-1245.48853	
1093	4.550	732.44843	1161.28540	-1119.55750	713.32910	1166.19763	-1172.90784	688.72009	1167.85071	-1224.07654	739.27533	1155.05554	-1158.19165	729.55566	1169.88818	-1190.15051	771.45447	1180.17346	-1176.07959	779.28656	1162.41870	-1196.13892	706.38794	1164.77710	-1141.47949	695.58563	1187.86304	-1170.30579	688.56885	1203.14551	-1131.57410	654.82306	1194.29517	-1128.78833	636.47223	1102.92102	-1318.44495	735.53772	1105.65759	-1299.45483	575.74091	1155.72046	-1234.14343	
1094	4.554	737.86621	1155.78284	-1108.03259	718.70740	1159.86267	-1161.22778	694.40631	1161.98755	-1212.28113	744.70654	1149.51221	-1146.40796	729.22931	1163.86292	-1174.04956	773.39685	1182.14001	-1165.17456	780.85748	1172.94653	-1190.93982	712.21240	1158.86438	-1130.44214	706.44666	1181.64343	-1160.77515	698.01367	1203.18591	-1124.76807	662.99524	1205.95203	-1128.79260	644.39716	1098.47253	-1308.82813	745.45319	1103.75574	-1286.78528	581.51648	1153.14758	-1222.05359	
1095	4.558	743.25653	1150.19495	-1096.52820	724.04059	1153.62927	-1149.82764	700.09265	1156.00586	-1200.55200	750.17566	1143.84241	-1134.90442	729.92792	1156.71362	-1158.03162	776.00378	1182.93640	-1154.07373	781.63196	1183.38745	-1182.10071	717.53369	1152.63831	-1119.30212	715.99866	1174.84009	-1150.00073	707.34369	1202.35461	-1117.12244	675.43567	1216.19897	-1127.97119	652.20166	1094.57947	-1299.60400	755.37256	1101.89270	-1273.78101	587.32813	1150.57410	-1209.42639	
1096	4.563	748.63947	1144.51245	-1085.03699	729.34424	1147.51306	-1138.68811	705.74310	1149.61084	-1188.88110	755.65680	1137.96912	-1123.56799	733.17175	1150.46021	-1143.28735	780.17847	1182.36523	-1143.48242	783.01990	1191.95325	-1170.30017	722.39355	1146.26355	-1107.92285	724.08032	1168.31372	-1137.90942	715.47522	1200.84363	-1108.21594	690.07660	1223.91431	-1124.50488	659.79291	1091.27954	-1290.65967	764.87823	1099.82544	-1260.60498	593.18158	1147.72302	-1196.54126	
1097	4.567	754.02100	1138.71326	-1073.57410	734.65955	1141.51050	-1127.75952	711.28485	1142.89734	-1177.34558	761.18005	1131.92383	-1112.33044	739.84161	1146.34338	-1130.63293	786.37701	1179.91943	-1133.88037	786.64136	1196.96362	-1156.97852	726.92712	1139.90942	-1096.24609	730.72003	1162.62842	-1124.59351	721.44507	1198.47156	-1097.84070	703.66980	1228.47803	-1116.85388	667.09259	1088.47058	-1281.79749	773.63251	1097.26648	-1247.45837	598.97125	1144.13672	-1183.62683	
1098	4.571	759.40131	1132.79309	-1062.15564	740.02905	1135.61731	-1116.99011	716.64758	1135.97327	-1166.05786	766.78705	1125.85608	-1101.19153	749.36414	1143.73950	-1119.99170	794.55304	1175.00342	-1125.27100	793.85162	1197.24243	-1143.90247	731.34509	1133.68237	-1084.38525	735.86041	1157.82776	-1110.43335	724.62433	1194.74402	-1085.97278	712.95929	1229.59167	-1104.36072	674.03888	1085.85864	-1272.74512	781.49213	1094.07019	-1234.53296	604.56287	1139.36951	-1170.84607	
1099	4.575	764.80328	1126.78955	-1050.78552	745.49487	1129.82983	-1106.32861	721.87250	1128.96460	-1155.00220	772.47247	1119.93152	-1090.15637	760.13153	1140.80383	-1110.59460	804.29755	1167.28992	-1117.18542	805.08521	1192.33069	-1132.40259	735.91321	1127.61804	-1072.53052	739.40021	1153.49634	-1096.09290	724.94849	1189.10510	-1072.69226	716.07703	1226.96582	-1087.50098	680.58893	1082.98572	-1263.23474	788.52081	1090.24268	-1221.96008	609.90283	1133.18384	-1158.32129	
1100	4.579	770.27600	1120.77527	-1039.45483	751.09961	1124.14380	-1095.72302	727.04590	1122.02905	-1144.10779	778.19562	1114.19910	-1079.18726	770.87476	1136.12439	-1101.67505	815.11536	1156.79773	-1108.95361	819.60052	1182.36987	-1122.65466	740.82422	1121.68201	-1060.77332	741.47607	1149.00452	-1082.15662	723.02527	1181.15491	-1058.10693	713.30060	1220.17444	-1067.42285	686.69916	1079.33630	-1253.09399	794.90094	1085.74109	-1209.80664	615.04602	1125.61426	-1146.12866	
1101	4.583	775.85846	1114.85388	-1028.12817	756.88568	1118.55530	-1085.12207	732.25610	1115.32666	-1133.30103	783.95490	1108.56628	-1068.22668	781.35400	1129.42615	-1092.80469	826.49774	1143.82312	-1099.97302	835.87097	1167.88013	-1113.63354	746.08582	1115.78772	-1049.04651	742.52954	1143.77161	-1068.67297	720.00122	1170.66699	-1042.33044	706.75037	1208.74634	-1045.20972	692.31396	1074.47412	-1242.25671	800.78766	1080.32739	-1198.12817	620.11493	1116.93689	-1134.27551	
1102	4.588	781.57385	1109.12732	-1016.76868	762.89520	1113.05981	-1074.47424	737.59186	1109.01746	-1122.50854	789.84021	1102.89990	-1057.22034	791.80902	1121.08044	-1083.70874	837.83051	1128.78247	-1089.74512	852.25641	1149.58728	-1103.79639	751.59784	1109.86072	-1037.24048	743.12933	1137.38538	-1055.12146	717.30701	1157.58276	-1025.53088	699.36407	1192.38867	-1021.66229	697.40491	1068.17297	-1230.70068	806.19873	1073.68555	-1186.98767	625.25488	1107.64026	-1122.70886	
1103	4.592	787.46515	1103.66199	-1005.37762	769.17010	1107.65405	-1063.72876	743.14142	1103.26099	-1111.65698	795.96838	1097.14502	-1046.12146	802.27350	1111.58203	-1074.07068	848.37695	1112.14197	-1077.86792	867.37042	1128.29431	-1091.82275	757.31158	1103.91528	-1025.34045	743.87775	1129.66675	-1040.85925	716.42157	1142.09741	-1008.03436	693.96271	1171.25281	-997.57684	702.02191	1060.50024	-1218.39478	811.01294	1065.68640	-1176.36975	630.60181	1098.36755	-1111.32068	
1104	4.596	793.58435	1098.45190	-993.97107	775.72968	1102.34619	-1052.84839	748.99207	1098.21472	-1100.67371	802.37744	1091.38062	-1034.88684	812.44812	1101.36401	-1063.58301	857.39294	1094.55725	-1064.14502	880.05780	1104.88940	-1076.94104	763.22919	1098.04785	-1013.43176	745.36420	1120.66345	-1025.66943	718.57294	1124.68359	-990.42468	692.69788	1146.11572	-973.97760	706.28931	1051.85437	-1205.31653	815.06445	1056.55469	-1166.09045	636.24249	1089.78979	-1099.98242	
1105	4.600	799.94031	1093.42053	-982.54004	782.41559	1097.34741	-1041.70361	755.19757	1093.98022	-1089.50366	808.97339	1085.76831	-1023.48914	821.90948	1090.83264	-1052.13550	864.33209	1076.99133	-1048.65552	889.32410	1080.53540	-1058.96338	769.24609	1092.29663	-1001.63019	748.08270	1110.61743	-1009.93616	724.42780	1106.10437	-973.46655	696.80890	1118.44250	-952.03497	710.34137	1042.87866	-1191.51978	818.29944	1046.85938	-1155.87292	642.17535	1082.42432	-1088.60181	
1106	4.604	806.48425	1088.47144	-971.05493	788.88770	1093.01160	-1030.05627	761.61908	1090.34949	-1078.02332	815.60364	1080.46082	-1011.91357	830.33051	1080.40540	-1039.89417	868.95300	1060.59766	-1031.69812	894.45593	1056.80713	-1038.27368	775.10950	1086.55505	-989.99115	752.27783	1100.01648	-994.35870	733.96240	1087.45471	-957.86444	706.54950	1090.23999	-932.78522	714.27899	1034.23938	-1177.18518	820.90259	1037.36023	-1145.53943	648.31946	1076.49487	-1077.14429	
1107	4.608	813.15302	1083.54199	-959.48352	795.23419	1088.92688	-1018.21100	767.92987	1086.74451	-1066.03406	822.19342	1075.54956	-1000.14813	837.60370	1070.52051	-1027.21851	871.32275	1046.39868	-1013.66711	895.31244	1035.54163	-1015.77045	780.66064	1080.71729	-978.45142	757.79626	1089.58984	-979.59033	746.47021	1070.20325	-943.97302	721.18353	1063.66882	-916.86713	718.20099	1026.40271	-1162.60779	823.27142	1028.70752	-1135.06641	654.57434	1071.86267	-1065.58911	
1108	4.613	819.91486	1078.59875	-947.79608	801.52997	1085.04309	-1006.19336	774.13684	1082.91272	-1053.85449	828.78308	1071.03894	-988.19128	843.85742	1061.58972	-1014.53052	871.98358	1035.07874	-995.05853	892.62982	1018.45581	-992.68719	786.21283	1074.98889	-966.80627	764.15161	1080.06787	-966.01990	760.66211	1055.88123	-931.73932	739.18152	1040.69922	-904.30084	722.25830	1019.53418	-1148.10876	825.85358	1021.18689	-1124.46497	660.87988	1068.00146	-1053.87024	
1109	4.617	826.78894	1073.60645	-935.95044	807.85956	1081.26611	-993.98981	780.28229	1078.72119	-1041.48596	835.46686	1066.83337	-976.05438	849.38928	1053.91113	-1002.21912	872.21185	1027.16907	-976.75177	888.06360	1006.70630	-970.36115	792.38245	1069.80127	-954.82080	770.78894	1071.94971	-953.67273	774.97437	1045.53320	-920.79614	758.59308	1022.89307	-894.37329	726.64771	1013.50177	-1133.91101	829.00220	1014.72888	-1113.70496	667.23761	1064.05566	-1041.85022	
1110	4.621	833.79901	1068.51465	-923.89832	814.30444	1077.36426	-981.59875	786.46228	1074.09656	-1028.92310	842.31232	1062.76221	-963.74591	854.57880	1047.65161	-990.57031	873.66779	1022.91626	-959.90717	883.85260	1000.50714	-950.04828	799.48920	1065.34534	-942.41193	777.29608	1065.44873	-942.30188	787.94141	1039.37292	-910.54370	777.52441	1011.22552	-885.77789	731.55670	1007.96637	-1120.05542	832.93610	1009.09674	-1102.71155	673.69489	1059.08179	-1029.37366	
